<?xml version="1.0" standalone="no"?>
<!DOCTYPE svg PUBLIC "-//W3C//DTD SVG 20010904//EN"
 "http://www.w3.org/TR/2001/REC-SVG-20010904/DTD/svg10.dtd">
<svg version="1.0" xmlns="http://www.w3.org/2000/svg"
 width="500.000000pt" height="500.000000pt" viewBox="0 0 500.000000 500.000000"
 preserveAspectRatio="xMidYMid meet">
<metadata>
Created by potrace 1.14, written by Peter Selinger 2001-2017
</metadata>
<g transform="translate(0.000000,500.000000) scale(0.100000,-0.100000)"
fill="#000000" stroke="none">
<path d="M1484 4778 c14 -514 19 -622 27 -603 6 15 8 9 8 -23 1 -24 5 -62 10
-85 5 -23 15 -88 22 -144 7 -56 15 -100 19 -98 4 2 10 -30 14 -72 3 -42 10
-79 15 -82 5 -3 12 -32 16 -63 4 -32 11 -58 16 -58 5 0 9 -10 9 -22 1 -13 9
-41 20 -63 11 -22 19 -50 20 -62 0 -24 39 -106 52 -111 4 -2 8 -18 8 -35 0
-16 3 -27 7 -24 3 4 17 -15 30 -43 13 -27 28 -52 33 -55 6 -3 10 -17 10 -31 0
-13 3 -24 8 -24 4 0 16 -18 26 -40 11 -22 23 -40 28 -40 4 0 8 -6 8 -13 0 -33
38 -38 298 -37 141 0 282 -4 312 -10 57 -10 145 -38 123 -39 -6 -1 -24 4 -40
9 l-28 10 22 -19 c12 -10 19 -22 15 -26 -4 -5 -2 -5 4 -2 7 4 17 0 24 -8 7 -8
17 -15 22 -15 5 0 2 7 -6 16 -24 24 -19 30 7 7 12 -11 30 -26 40 -34 10 -8 27
-23 37 -33 11 -11 20 -16 20 -12 0 5 7 2 16 -5 17 -14 40 -28 92 -55 19 -9 36
-23 39 -31 3 -7 9 -10 14 -7 5 3 7 11 3 17 -5 11 8 -4 57 -63 55 -68 101 -189
118 -315 6 -42 16 -74 26 -81 8 -6 15 -16 15 -23 0 -6 5 -11 10 -11 6 0 10 -4
10 -9 0 -5 -6 -8 -12 -7 -24 3 -38 17 -38 37 0 10 -7 19 -15 19 -8 0 -15 4
-15 9 0 4 -28 11 -62 14 -76 7 -225 44 -253 62 -15 9 -26 37 -39 91 -27 114
-31 120 -97 144 -32 12 -64 29 -70 37 -10 12 -16 5 -34 -40 -12 -29 -43 -84
-68 -122 -55 -82 -63 -75 -61 53 1 45 -1 82 -5 82 -3 0 -21 -9 -40 -21 l-34
-20 8 -77 c10 -93 8 -163 -7 -217 -6 -22 -12 -64 -12 -93 l-2 -52 37 0 c43 0
61 16 27 23 -21 4 -20 4 3 6 15 0 39 -6 55 -14 19 -10 32 -11 40 -4 8 7 14 7
19 -1 4 -6 48 -10 108 -10 92 0 106 2 139 25 31 21 38 22 48 10 7 -8 16 -15
20 -15 4 0 32 -15 61 -32 l54 -33 -3 -82 -3 -83 70 0 c48 0 74 5 85 15 18 18
26 19 26 2 0 -12 64 -47 87 -47 6 0 18 -11 27 -25 9 -14 22 -25 29 -25 14 0
39 -27 57 -59 6 -12 16 -21 23 -21 15 0 36 -24 56 -63 8 -15 21 -27 30 -27 9
0 32 -25 51 -55 19 -30 41 -55 48 -55 7 0 23 -24 36 -52 30 -68 63 -148 70
-170 3 -10 13 -18 23 -18 15 0 16 -2 3 -10 -11 -7 -11 -10 -2 -10 7 0 10 -5 7
-10 -3 -6 0 -10 8 -10 18 0 51 -110 61 -200 6 -53 22 -147 36 -210 5 -25 17
-83 25 -130 8 -47 19 -103 24 -125 6 -22 12 -74 15 -115 5 -71 17 -211 34
-382 4 -42 11 -80 16 -85 4 -4 268 -9 587 -11 l579 -3 0 2496 0 2495 -1761 0
-1762 0 7 -212z m1611 -1838 c-8 -13 -465 -13 -485 0 -10 6 71 10 238 10 166
0 251 -3 247 -10z m-95 -980 c13 -9 13 -11 0 -20 -27 -17 -60 -12 -60 10 0 22
33 27 60 10z"/>
<path d="M2415 2940 c3 -5 8 -10 11 -10 2 0 4 5 4 10 0 6 -5 10 -11 10 -5 0
-7 -4 -4 -10z"/>
<path d="M1940 2909 c0 -11 5 -17 10 -14 6 3 10 -1 10 -10 0 -9 5 -21 10 -28
6 -7 17 -21 25 -32 12 -18 16 -19 37 -6 66 42 119 68 178 87 l65 22 -167 1
c-163 1 -168 0 -168 -20z"/>
<path d="M2404 2865 c-16 -13 -17 -16 -4 -25 8 -5 23 -10 32 -10 16 0 48 -35
48 -52 0 -5 -11 -13 -24 -18 -18 -7 -23 -14 -19 -30 3 -11 10 -20 17 -19 32 4
46 -3 46 -22 0 -11 -4 -18 -9 -15 -5 4 -11 1 -13 -6 -3 -7 -12 -9 -22 -5 -9 4
-14 11 -11 17 3 5 -1 10 -10 10 -11 0 -15 -5 -12 -14 4 -9 -1 -17 -11 -19 -16
-4 -15 -5 1 -6 19 -1 24 -21 5 -21 -9 0 -8 -3 2 -10 12 -7 12 -12 2 -22 -16
-16 -15 -28 3 -28 15 0 77 57 108 100 12 17 17 43 17 92 0 60 -3 72 -25 93
-28 29 -89 34 -121 10z"/>
<path d="M2386 2745 c4 -9 11 -14 16 -13 15 5 11 23 -6 26 -11 2 -14 -2 -10
-13z"/>
<path d="M1338 2085 c-3 -4 7 -47 24 -96 29 -88 30 -89 63 -89 30 0 33 3 45
46 14 50 22 48 40 -8 10 -34 15 -38 44 -38 31 0 32 2 59 83 34 104 34 109 0
105 -22 -2 -29 -11 -43 -52 -18 -54 -22 -53 -39 12 -10 37 -15 42 -40 42 -22
0 -30 -6 -35 -25 -3 -13 -11 -37 -17 -52 l-11 -28 -17 50 c-14 40 -23 51 -42
53 -14 2 -28 0 -31 -3z"/>
<path d="M1670 1996 l0 -96 30 0 31 0 -3 93 -3 92 -27 3 -28 3 0 -95z"/>
<path d="M1760 1995 l0 -95 70 0 c68 0 70 1 70 25 0 23 -4 25 -40 25 l-40 0 0
70 0 70 -30 0 -30 0 0 -95z"/>
<path d="M1927 2084 c-4 -4 -7 -47 -7 -96 l0 -88 75 0 c73 0 75 1 75 25 0 22
-4 25 -40 25 l-39 0 -3 68 c-3 63 -4 67 -28 70 -14 2 -29 0 -33 -4z"/>
<path d="M2087 2083 c-4 -3 -7 -46 -7 -95 l0 -88 35 0 35 0 0 95 0 95 -28 0
c-16 0 -32 -3 -35 -7z"/>
<path d="M2202 2078 c-52 -26 -35 -91 28 -108 52 -14 51 -22 -1 -19 -31 3 -43
-1 -51 -15 -14 -26 5 -36 70 -36 39 0 57 5 72 20 38 38 16 83 -48 96 -44 9
-41 28 3 21 29 -5 37 -2 46 15 9 16 8 23 -2 29 -19 12 -89 10 -117 -3z"/>
<path d="M2450 2058 c0 -8 11 -45 23 -84 20 -59 27 -69 47 -69 19 0 26 9 40
50 l17 50 17 -52 c15 -44 22 -53 41 -53 20 0 27 10 49 78 31 92 31 92 7 92
-15 0 -24 -14 -38 -56 l-19 -56 -18 57 c-15 47 -21 56 -39 53 -15 -2 -25 -16
-36 -50 -8 -27 -17 -48 -21 -48 -4 0 -13 21 -21 47 -9 31 -20 49 -31 51 -10 2
-18 -3 -18 -10z"/>
<path d="M2737 2063 c-4 -3 -7 -42 -7 -85 l0 -78 70 0 c56 0 70 3 70 15 0 11
-12 15 -45 15 -38 0 -45 3 -45 20 0 16 7 20 35 20 24 0 35 5 35 15 0 10 -11
15 -35 15 -53 0 -47 28 7 32 31 2 44 8 46 21 3 15 -5 17 -61 17 -35 0 -67 -3
-70 -7z"/>
<path d="M2057 1734 c-4 -4 -7 -25 -7 -46 0 -37 1 -38 34 -38 32 0 56 23 37
35 -5 3 -7 14 -4 25 4 14 0 20 -10 20 -8 0 -22 2 -29 5 -8 3 -17 2 -21 -1z
m43 -24 c0 -5 -7 -10 -15 -10 -8 0 -15 5 -15 10 0 6 7 10 15 10 8 0 15 -4 15
-10z m-3 -36 c-3 -3 -12 -4 -19 -1 -8 3 -5 6 6 6 11 1 17 -2 13 -5z"/>
<path d="M2230 1696 c0 -44 1 -46 29 -46 27 0 61 22 61 39 0 18 -28 41 -57 47
l-33 7 0 -47z m44 18 c24 -9 20 -44 -4 -44 -15 0 -20 7 -20 25 0 27 1 28 24
19z"/>
<path d="M2350 1695 c0 -45 0 -45 35 -45 41 0 48 19 8 21 -24 2 -25 2 -5 6 28
5 29 23 1 23 -11 0 -17 5 -14 10 3 6 15 10 26 10 11 0 17 5 14 10 -3 6 -19 10
-36 10 -28 0 -29 -2 -29 -45z"/>
<path d="M2450 1730 c0 -25 30 -80 44 -80 8 0 19 12 24 28 5 15 13 35 17 45 4
10 3 17 -4 17 -7 0 -18 -14 -25 -31 l-13 -31 -13 31 c-12 30 -30 42 -30 21z"/>
<path d="M2570 1695 c0 -45 0 -45 35 -45 41 0 48 19 8 21 -24 2 -25 2 -5 6 27
5 29 23 2 23 -11 0 -20 5 -20 10 0 6 12 10 26 10 14 0 23 4 19 10 -3 6 -19 10
-36 10 -28 0 -29 -2 -29 -45z"/>
<path d="M2670 1695 c0 -45 0 -45 35 -45 19 0 35 5 35 10 0 6 -12 10 -26 10
-22 0 -25 4 -21 21 6 24 -1 49 -14 49 -5 0 -9 -20 -9 -45z"/>
<path d="M2776 1724 c-33 -32 -13 -74 36 -74 40 0 59 41 33 70 -22 24 -48 26
-69 4z m52 -31 c-5 -26 -38 -29 -38 -4 0 15 6 21 21 21 14 0 19 -5 17 -17z"/>
<path d="M2890 1695 c0 -33 4 -45 15 -45 8 0 15 4 15 9 0 5 9 11 20 14 49 13
27 67 -27 67 -21 0 -23 -5 -23 -45z m50 5 c0 -5 -4 -10 -10 -10 -5 0 -10 5
-10 10 0 6 5 10 10 10 6 0 10 -4 10 -10z"/>
<path d="M3000 1695 c0 -45 0 -45 35 -45 38 0 49 19 13 21 -17 1 -19 2 -5 6 9
2 17 8 17 13 0 5 -8 11 -17 13 -14 4 -12 5 5 6 38 2 27 31 -13 31 -35 0 -35 0
-35 -45z"/>
<path d="M3100 1695 c0 -33 4 -45 15 -45 8 0 15 5 15 12 0 9 3 9 12 0 22 -22
35 -13 36 25 2 41 -9 53 -50 53 -26 0 -28 -3 -28 -45z m50 5 c0 -5 -4 -10 -10
-10 -5 0 -10 5 -10 10 0 6 5 10 10 10 6 0 10 -4 10 -10z"/>
<path d="M1780 1721 c0 -23 24 -71 35 -71 7 0 16 12 20 28 l7 27 10 -28 c13
-36 28 -30 44 16 14 40 0 53 -16 15 l-9 -23 -7 23 c-9 31 -32 28 -41 -5 l-6
-28 -10 28 c-8 25 -27 38 -27 18z"/>
<path d="M1940 1690 c0 -39 1 -40 35 -40 41 0 48 19 8 21 -24 2 -25 2 -5 6 27
5 29 23 2 23 -30 0 -24 18 8 23 22 3 20 4 -10 6 -38 1 -38 1 -38 -39z"/>
<path d="M2168 1683 c7 -3 16 -2 19 1 4 3 -2 6 -13 5 -11 0 -14 -3 -6 -6z"/>
</g>
</svg>
